<svg width="302" height="64" viewBox="0 0 302 64" fill="none" xmlns="http://www.w3.org/2000/svg">
<mask id="path-1-inside-1_602_45" fill="white">
<path d="M0 4C0 1.79086 1.79086 0 4 0H298C300.209 0 302 1.79086 302 4V60C302 62.2091 300.209 64 298 64H4C1.79086 64 0 62.2091 0 60V4Z"/>
</mask>
<path d="M0 4C0 1.79086 1.79086 0 4 0H298C300.209 0 302 1.79086 302 4V60C302 62.2091 300.209 64 298 64H4C1.79086 64 0 62.2091 0 60V4Z" fill="#EF4040"/>
<path d="M0 0H302H0ZM302 60C302 63.3137 299.314 66 296 66H6C2.68629 66 0 63.3137 0 60C0 61.1046 1.79086 62 4 62H298C300.209 62 302 61.1046 302 60ZM0 64V0V64ZM302 0V64V0Z" fill="#FFBEBE" mask="url(#path-1-inside-1_602_45)"/>
<g clip-path="url(#clip0_602_45)">
<path d="M26.81 20.219C26.9506 20.0788 27.141 20 27.3395 20H36.6605C36.859 20 37.0494 20.0788 37.19 20.219L43.781 26.81C43.9212 26.9506 44 27.141 44 27.3395V36.6605C44 36.859 43.9212 37.0494 43.781 37.19L37.19 43.781C37.0494 43.9212 36.859 44 36.6605 44H27.3395C27.141 44 26.9506 43.9212 26.81 43.781L20.219 37.19C20.0788 37.0494 20 36.859 20 36.6605V27.3395C20 27.141 20.0788 26.9506 20.219 26.81L26.81 20.219ZM27.65 21.5L21.5 27.65V36.35L27.65 42.5H36.35L42.5 36.35V27.65L36.35 21.5H27.65Z" fill="#FAFAFB"/>
<path d="M26.969 26.9691C27.0387 26.8993 27.1214 26.8439 27.2125 26.8061C27.3037 26.7682 27.4013 26.7488 27.5 26.7488C27.5986 26.7488 27.6963 26.7682 27.7874 26.8061C27.8786 26.8439 27.9613 26.8993 28.031 26.9691L32 30.9396L35.969 26.9691C36.0387 26.8994 36.1215 26.8441 36.2126 26.8063C36.3037 26.7686 36.4014 26.7492 36.5 26.7492C36.5986 26.7492 36.6963 26.7686 36.7874 26.8063C36.8785 26.8441 36.9613 26.8994 37.031 26.9691C37.1007 27.0389 37.156 27.1216 37.1938 27.2127C37.2315 27.3039 37.2509 27.4015 37.2509 27.5001C37.2509 27.5987 37.2315 27.6964 37.1938 27.7875C37.156 27.8786 37.1007 27.9614 37.031 28.0311L33.0605 32.0001L37.031 35.9691C37.1007 36.0389 37.156 36.1216 37.1938 36.2127C37.2315 36.3039 37.2509 36.4015 37.2509 36.5001C37.2509 36.5987 37.2315 36.6964 37.1938 36.7875C37.156 36.8786 37.1007 36.9614 37.031 37.0311C36.9613 37.1009 36.8785 37.1562 36.7874 37.1939C36.6963 37.2316 36.5986 37.2511 36.5 37.2511C36.4014 37.2511 36.3037 37.2316 36.2126 37.1939C36.1215 37.1562 36.0387 37.1009 35.969 37.0311L32 33.0606L28.031 37.0311C27.9613 37.1009 27.8785 37.1562 27.7874 37.1939C27.6963 37.2316 27.5986 37.2511 27.5 37.2511C27.4014 37.2511 27.3037 37.2316 27.2126 37.1939C27.1215 37.1562 27.0387 37.1009 26.969 37.0311C26.8993 36.9614 26.844 36.8786 26.8062 36.7875C26.7685 36.6964 26.749 36.5987 26.749 36.5001C26.749 36.4015 26.7685 36.3039 26.8062 36.2127C26.844 36.1216 26.8993 36.0389 26.969 35.9691L30.9395 32.0001L26.969 28.0311C26.8992 27.9615 26.8437 27.8787 26.8059 27.7876C26.7681 27.6965 26.7487 27.5988 26.7487 27.5001C26.7487 27.4015 26.7681 27.3038 26.8059 27.2127C26.8437 27.1216 26.8992 27.0388 26.969 26.9691Z" fill="#FAFAFB"/>
</g>
<path d="M55.712 31.312H61.104V33.328H55.712V31.312ZM55.904 35.92H62V38H53.328V26.8H61.792V28.88H55.904V35.92ZM64.3864 38V29.392H66.7704V31.824L66.4344 31.12C66.6904 30.512 67.101 30.0533 67.6664 29.744C68.2317 29.424 68.9197 29.264 69.7304 29.264V31.568C69.6237 31.5573 69.5277 31.552 69.4424 31.552C69.357 31.5413 69.2664 31.536 69.1704 31.536C68.4877 31.536 67.933 31.7333 67.5064 32.128C67.0904 32.512 66.8824 33.1147 66.8824 33.936V38H64.3864ZM71.7301 38V29.392H74.1141V31.824L73.7781 31.12C74.0341 30.512 74.4448 30.0533 75.0101 29.744C75.5755 29.424 76.2635 29.264 77.0741 29.264V31.568C76.9675 31.5573 76.8715 31.552 76.7861 31.552C76.7008 31.5413 76.6101 31.536 76.5141 31.536C75.8315 31.536 75.2768 31.7333 74.8501 32.128C74.4341 32.512 74.2261 33.1147 74.2261 33.936V38H71.7301ZM83.0918 38.128C82.1744 38.128 81.3584 37.936 80.6438 37.552C79.9398 37.168 79.3798 36.6453 78.9638 35.984C78.5584 35.312 78.3558 34.5493 78.3558 33.696C78.3558 32.832 78.5584 32.0693 78.9638 31.408C79.3798 30.736 79.9398 30.2133 80.6438 29.84C81.3584 29.456 82.1744 29.264 83.0918 29.264C83.9984 29.264 84.8091 29.456 85.5238 29.84C86.2384 30.2133 86.7984 30.7307 87.2038 31.392C87.6091 32.0533 87.8118 32.8213 87.8118 33.696C87.8118 34.5493 87.6091 35.312 87.2038 35.984C86.7984 36.6453 86.2384 37.168 85.5238 37.552C84.8091 37.936 83.9984 38.128 83.0918 38.128ZM83.0918 36.08C83.5078 36.08 83.8811 35.984 84.2118 35.792C84.5424 35.6 84.8038 35.328 84.9958 34.976C85.1878 34.6133 85.2838 34.1867 85.2838 33.696C85.2838 33.1947 85.1878 32.768 84.9958 32.416C84.8038 32.064 84.5424 31.792 84.2118 31.6C83.8811 31.408 83.5078 31.312 83.0918 31.312C82.6758 31.312 82.3024 31.408 81.9718 31.6C81.6411 31.792 81.3744 32.064 81.1718 32.416C80.9798 32.768 80.8838 33.1947 80.8838 33.696C80.8838 34.1867 80.9798 34.6133 81.1718 34.976C81.3744 35.328 81.6411 35.6 81.9718 35.792C82.3024 35.984 82.6758 36.08 83.0918 36.08ZM89.9801 38V29.392H92.3641V31.824L92.0281 31.12C92.2841 30.512 92.6948 30.0533 93.2601 29.744C93.8255 29.424 94.5135 29.264 95.3241 29.264V31.568C95.2175 31.5573 95.1215 31.552 95.0361 31.552C94.9508 31.5413 94.8601 31.536 94.7641 31.536C94.0815 31.536 93.5268 31.7333 93.1001 32.128C92.6841 32.512 92.4761 33.1147 92.4761 33.936V38H89.9801Z" fill="white"/>
<path d="M105.824 38V26.8H107.008V38H105.824ZM110.912 38V26.128H112.048V38H110.912ZM115.709 38V26.128H116.845V38H115.709ZM124.074 38.08C123.199 38.08 122.431 37.8987 121.77 37.536C121.109 37.1627 120.591 36.656 120.218 36.016C119.845 35.3653 119.658 34.624 119.658 33.792C119.658 32.96 119.834 32.224 120.186 31.584C120.549 30.944 121.039 30.4427 121.658 30.08C122.287 29.7067 122.991 29.52 123.77 29.52C124.559 29.52 125.258 29.7013 125.866 30.064C126.485 30.416 126.97 30.9173 127.322 31.568C127.674 32.208 127.85 32.9493 127.85 33.792C127.85 33.8453 127.845 33.904 127.834 33.968C127.834 34.0213 127.834 34.08 127.834 34.144H120.522V33.296H127.226L126.778 33.632C126.778 33.024 126.645 32.4853 126.378 32.016C126.122 31.536 125.77 31.1627 125.322 30.896C124.874 30.6293 124.357 30.496 123.77 30.496C123.194 30.496 122.677 30.6293 122.218 30.896C121.759 31.1627 121.402 31.536 121.146 32.016C120.89 32.496 120.762 33.0453 120.762 33.664V33.84C120.762 34.48 120.901 35.0453 121.178 35.536C121.466 36.016 121.861 36.3947 122.362 36.672C122.874 36.9387 123.455 37.072 124.106 37.072C124.618 37.072 125.093 36.9813 125.53 36.8C125.978 36.6187 126.362 36.3413 126.682 35.968L127.322 36.704C126.949 37.152 126.479 37.4933 125.914 37.728C125.359 37.9627 124.746 38.08 124.074 38.08ZM134.246 41.184C133.478 41.184 132.742 41.072 132.038 40.848C131.334 40.624 130.763 40.304 130.326 39.888L130.902 39.024C131.297 39.376 131.782 39.6533 132.358 39.856C132.945 40.0693 133.563 40.176 134.214 40.176C135.281 40.176 136.065 39.9253 136.566 39.424C137.067 38.9333 137.318 38.1653 137.318 37.12V35.024L137.478 33.584L137.366 32.144V29.6H138.454V36.976C138.454 38.4267 138.097 39.488 137.382 40.16C136.678 40.8427 135.633 41.184 134.246 41.184ZM134.038 37.68C133.238 37.68 132.518 37.5093 131.878 37.168C131.238 36.816 130.731 36.3307 130.358 35.712C129.995 35.0933 129.814 34.384 129.814 33.584C129.814 32.784 129.995 32.08 130.358 31.472C130.731 30.8533 131.238 30.3733 131.878 30.032C132.518 29.6907 133.238 29.52 134.038 29.52C134.785 29.52 135.457 29.6747 136.054 29.984C136.651 30.2933 137.126 30.752 137.478 31.36C137.83 31.968 138.006 32.7093 138.006 33.584C138.006 34.4587 137.83 35.2 137.478 35.808C137.126 36.416 136.651 36.88 136.054 37.2C135.457 37.52 134.785 37.68 134.038 37.68ZM134.15 36.672C134.769 36.672 135.318 36.544 135.798 36.288C136.278 36.0213 136.657 35.6587 136.934 35.2C137.211 34.7307 137.35 34.192 137.35 33.584C137.35 32.976 137.211 32.4427 136.934 31.984C136.657 31.5253 136.278 31.168 135.798 30.912C135.318 30.6453 134.769 30.512 134.15 30.512C133.542 30.512 132.993 30.6453 132.502 30.912C132.022 31.168 131.643 31.5253 131.366 31.984C131.099 32.4427 130.966 32.976 130.966 33.584C130.966 34.192 131.099 34.7307 131.366 35.2C131.643 35.6587 132.022 36.0213 132.502 36.288C132.993 36.544 133.542 36.672 134.15 36.672ZM147.379 38V36.144L147.331 35.84V32.736C147.331 32.0213 147.129 31.472 146.723 31.088C146.329 30.704 145.737 30.512 144.947 30.512C144.403 30.512 143.886 30.6027 143.395 30.784C142.905 30.9653 142.489 31.2053 142.147 31.504L141.635 30.656C142.062 30.2933 142.574 30.016 143.171 29.824C143.769 29.6213 144.398 29.52 145.059 29.52C146.147 29.52 146.985 29.792 147.571 30.336C148.169 30.8693 148.467 31.6853 148.467 32.784V38H147.379ZM144.483 38.08C143.854 38.08 143.305 37.9787 142.835 37.776C142.377 37.5627 142.025 37.2747 141.779 36.912C141.534 36.5387 141.411 36.112 141.411 35.632C141.411 35.1947 141.513 34.8 141.715 34.448C141.929 34.0853 142.27 33.7973 142.739 33.584C143.219 33.36 143.859 33.248 144.659 33.248H147.555V34.096H144.691C143.881 34.096 143.315 34.24 142.995 34.528C142.686 34.816 142.531 35.1733 142.531 35.6C142.531 36.08 142.718 36.464 143.091 36.752C143.465 37.04 143.987 37.184 144.659 37.184C145.299 37.184 145.849 37.04 146.307 36.752C146.777 36.4533 147.118 36.0267 147.331 35.472L147.587 36.256C147.374 36.8107 147.001 37.2533 146.467 37.584C145.945 37.9147 145.283 38.08 144.483 38.08ZM152.053 38V26.128H153.189V38H152.053ZM164.961 38.08C164.15 38.08 163.42 37.8987 162.769 37.536C162.129 37.1627 161.622 36.656 161.249 36.016C160.876 35.3653 160.689 34.624 160.689 33.792C160.689 32.9493 160.876 32.208 161.249 31.568C161.622 30.928 162.129 30.4267 162.769 30.064C163.409 29.7013 164.14 29.52 164.961 29.52C165.793 29.52 166.529 29.7013 167.169 30.064C167.82 30.4267 168.326 30.928 168.689 31.568C169.062 32.208 169.249 32.9493 169.249 33.792C169.249 34.624 169.062 35.3653 168.689 36.016C168.326 36.656 167.82 37.1627 167.169 37.536C166.518 37.8987 165.782 38.08 164.961 38.08ZM164.961 37.072C165.569 37.072 166.108 36.9387 166.577 36.672C167.046 36.3947 167.414 36.0107 167.681 35.52C167.958 35.0187 168.097 34.4427 168.097 33.792C168.097 33.1307 167.958 32.5547 167.681 32.064C167.414 31.5733 167.046 31.1947 166.577 30.928C166.108 30.6507 165.574 30.512 164.977 30.512C164.38 30.512 163.846 30.6507 163.377 30.928C162.908 31.1947 162.534 31.5733 162.257 32.064C161.98 32.5547 161.841 33.1307 161.841 33.792C161.841 34.4427 161.98 35.0187 162.257 35.52C162.534 36.0107 162.908 36.3947 163.377 36.672C163.846 36.9387 164.374 37.072 164.961 37.072ZM176.404 38.08C175.679 38.08 175.023 37.9147 174.436 37.584C173.85 37.2427 173.38 36.7573 173.028 36.128C172.687 35.488 172.516 34.7093 172.516 33.792C172.516 32.8747 172.687 32.1013 173.028 31.472C173.37 30.832 173.834 30.3467 174.42 30.016C175.007 29.6853 175.668 29.52 176.404 29.52C177.204 29.52 177.919 29.7013 178.548 30.064C179.188 30.416 179.69 30.9173 180.052 31.568C180.415 32.208 180.596 32.9493 180.596 33.792C180.596 34.6453 180.415 35.392 180.052 36.032C179.69 36.672 179.188 37.1733 178.548 37.536C177.919 37.8987 177.204 38.08 176.404 38.08ZM172.068 41.104V29.6H173.156V32.128L173.044 33.808L173.204 35.504V41.104H172.068ZM176.324 37.072C176.922 37.072 177.455 36.9387 177.924 36.672C178.394 36.3947 178.767 36.0107 179.044 35.52C179.322 35.0187 179.46 34.4427 179.46 33.792C179.46 33.1413 179.322 32.5707 179.044 32.08C178.767 31.5893 178.394 31.2053 177.924 30.928C177.455 30.6507 176.922 30.512 176.324 30.512C175.727 30.512 175.188 30.6507 174.708 30.928C174.239 31.2053 173.866 31.5893 173.588 32.08C173.322 32.5707 173.188 33.1413 173.188 33.792C173.188 34.4427 173.322 35.0187 173.588 35.52C173.866 36.0107 174.239 36.3947 174.708 36.672C175.188 36.9387 175.727 37.072 176.324 37.072ZM186.98 38.08C186.105 38.08 185.337 37.8987 184.676 37.536C184.015 37.1627 183.497 36.656 183.124 36.016C182.751 35.3653 182.564 34.624 182.564 33.792C182.564 32.96 182.74 32.224 183.092 31.584C183.455 30.944 183.945 30.4427 184.564 30.08C185.193 29.7067 185.897 29.52 186.676 29.52C187.465 29.52 188.164 29.7013 188.772 30.064C189.391 30.416 189.876 30.9173 190.228 31.568C190.58 32.208 190.756 32.9493 190.756 33.792C190.756 33.8453 190.751 33.904 190.74 33.968C190.74 34.0213 190.74 34.08 190.74 34.144H183.428V33.296H190.132L189.684 33.632C189.684 33.024 189.551 32.4853 189.284 32.016C189.028 31.536 188.676 31.1627 188.228 30.896C187.78 30.6293 187.263 30.496 186.676 30.496C186.1 30.496 185.583 30.6293 185.124 30.896C184.665 31.1627 184.308 31.536 184.052 32.016C183.796 32.496 183.668 33.0453 183.668 33.664V33.84C183.668 34.48 183.807 35.0453 184.084 35.536C184.372 36.016 184.767 36.3947 185.268 36.672C185.78 36.9387 186.361 37.072 187.012 37.072C187.524 37.072 187.999 36.9813 188.436 36.8C188.884 36.6187 189.268 36.3413 189.588 35.968L190.228 36.704C189.855 37.152 189.385 37.4933 188.82 37.728C188.265 37.9627 187.652 38.08 186.98 38.08ZM193.568 38V29.6H194.656V31.888L194.544 31.488C194.779 30.848 195.174 30.3627 195.728 30.032C196.283 29.6907 196.971 29.52 197.792 29.52V30.624C197.75 30.624 197.707 30.624 197.664 30.624C197.622 30.6133 197.579 30.608 197.536 30.608C196.651 30.608 195.958 30.88 195.456 31.424C194.955 31.9573 194.704 32.72 194.704 33.712V38H193.568ZM205.004 38V36.144L204.956 35.84V32.736C204.956 32.0213 204.754 31.472 204.348 31.088C203.954 30.704 203.362 30.512 202.572 30.512C202.028 30.512 201.511 30.6027 201.02 30.784C200.53 30.9653 200.114 31.2053 199.772 31.504L199.26 30.656C199.687 30.2933 200.199 30.016 200.796 29.824C201.394 29.6213 202.023 29.52 202.684 29.52C203.772 29.52 204.61 29.792 205.196 30.336C205.794 30.8693 206.092 31.6853 206.092 32.784V38H205.004ZM202.108 38.08C201.479 38.08 200.93 37.9787 200.46 37.776C200.002 37.5627 199.65 37.2747 199.404 36.912C199.159 36.5387 199.036 36.112 199.036 35.632C199.036 35.1947 199.138 34.8 199.34 34.448C199.554 34.0853 199.895 33.7973 200.364 33.584C200.844 33.36 201.484 33.248 202.284 33.248H205.18V34.096H202.316C201.506 34.096 200.94 34.24 200.62 34.528C200.311 34.816 200.156 35.1733 200.156 35.6C200.156 36.08 200.343 36.464 200.716 36.752C201.09 37.04 201.612 37.184 202.284 37.184C202.924 37.184 203.474 37.04 203.932 36.752C204.402 36.4533 204.743 36.0267 204.956 35.472L205.212 36.256C204.999 36.8107 204.626 37.2533 204.092 37.584C203.57 37.9147 202.908 38.08 202.108 38.08ZM212.334 38.08C211.544 38.08 210.936 37.8667 210.51 37.44C210.083 37.0133 209.87 36.4107 209.87 35.632V27.744H211.006V35.568C211.006 36.0587 211.128 36.4373 211.374 36.704C211.63 36.9707 211.992 37.104 212.462 37.104C212.963 37.104 213.379 36.96 213.71 36.672L214.11 37.488C213.886 37.6907 213.614 37.84 213.294 37.936C212.984 38.032 212.664 38.08 212.334 38.08ZM208.366 30.544V29.6H213.566V30.544H208.366ZM216.678 38V29.6H217.814V38H216.678ZM217.254 27.744C217.019 27.744 216.822 27.664 216.662 27.504C216.502 27.344 216.422 27.152 216.422 26.928C216.422 26.704 216.502 26.5173 216.662 26.368C216.822 26.208 217.019 26.128 217.254 26.128C217.488 26.128 217.686 26.2027 217.846 26.352C218.006 26.5013 218.086 26.688 218.086 26.912C218.086 27.1467 218.006 27.344 217.846 27.504C217.696 27.664 217.499 27.744 217.254 27.744ZM224.899 38.08C224.088 38.08 223.357 37.8987 222.707 37.536C222.067 37.1627 221.56 36.656 221.187 36.016C220.813 35.3653 220.627 34.624 220.627 33.792C220.627 32.9493 220.813 32.208 221.187 31.568C221.56 30.928 222.067 30.4267 222.707 30.064C223.347 29.7013 224.077 29.52 224.899 29.52C225.731 29.52 226.467 29.7013 227.107 30.064C227.757 30.4267 228.264 30.928 228.627 31.568C229 32.208 229.187 32.9493 229.187 33.792C229.187 34.624 229 35.3653 228.627 36.016C228.264 36.656 227.757 37.1627 227.107 37.536C226.456 37.8987 225.72 38.08 224.899 38.08ZM224.899 37.072C225.507 37.072 226.045 36.9387 226.515 36.672C226.984 36.3947 227.352 36.0107 227.619 35.52C227.896 35.0187 228.035 34.4427 228.035 33.792C228.035 33.1307 227.896 32.5547 227.619 32.064C227.352 31.5733 226.984 31.1947 226.515 30.928C226.045 30.6507 225.512 30.512 224.915 30.512C224.317 30.512 223.784 30.6507 223.315 30.928C222.845 31.1947 222.472 31.5733 222.195 32.064C221.917 32.5547 221.779 33.1307 221.779 33.792C221.779 34.4427 221.917 35.0187 222.195 35.52C222.472 36.0107 222.845 36.3947 223.315 36.672C223.784 36.9387 224.312 37.072 224.899 37.072ZM236.294 29.52C236.977 29.52 237.574 29.6533 238.086 29.92C238.609 30.176 239.014 30.5707 239.302 31.104C239.601 31.6373 239.75 32.3093 239.75 33.12V38H238.614V33.232C238.614 32.3467 238.39 31.68 237.942 31.232C237.505 30.7733 236.886 30.544 236.086 30.544C235.489 30.544 234.966 30.6667 234.518 30.912C234.081 31.1467 233.739 31.4933 233.494 31.952C233.259 32.4 233.142 32.944 233.142 33.584V38H232.006V29.6H233.094V31.904L232.918 31.472C233.185 30.864 233.611 30.3893 234.198 30.048C234.785 29.696 235.483 29.52 236.294 29.52Z" fill="white"/>
<path d="M268.146 26.8539C268.1 26.8074 268.063 26.7522 268.037 26.6915C268.012 26.6307 267.999 26.5656 267.999 26.4999C267.999 26.4342 268.012 26.3691 268.037 26.3083C268.063 26.2476 268.1 26.1924 268.146 26.1459C268.193 26.0994 268.248 26.0625 268.308 26.0374C268.369 26.0122 268.434 25.9993 268.5 25.9993C268.566 25.9993 268.631 26.0122 268.692 26.0374C268.752 26.0625 268.808 26.0994 268.854 26.1459L274 31.2929L279.146 26.1459C279.193 26.0994 279.248 26.0625 279.308 26.0374C279.369 26.0122 279.434 25.9993 279.5 25.9993C279.566 25.9993 279.631 26.0122 279.692 26.0374C279.752 26.0625 279.808 26.0994 279.854 26.1459C279.901 26.1924 279.937 26.2476 279.963 26.3083C279.988 26.3691 280.001 26.4342 280.001 26.4999C280.001 26.5656 279.988 26.6307 279.963 26.6915C279.937 26.7522 279.901 26.8074 279.854 26.8539L274.707 31.9999L279.854 37.1459C279.901 37.1924 279.937 37.2476 279.963 37.3083C279.988 37.3691 280.001 37.4342 280.001 37.4999C280.001 37.5656 279.988 37.6307 279.963 37.6915C279.937 37.7522 279.901 37.8074 279.854 37.8539C279.808 37.9004 279.752 37.9373 279.692 37.9624C279.631 37.9876 279.566 38.0005 279.5 38.0005C279.434 38.0005 279.369 37.9876 279.308 37.9624C279.248 37.9373 279.193 37.9004 279.146 37.8539L274 32.7069L268.854 37.8539C268.808 37.9004 268.752 37.9373 268.692 37.9624C268.631 37.9876 268.566 38.0005 268.5 38.0005C268.434 38.0005 268.369 37.9876 268.308 37.9624C268.248 37.9373 268.193 37.9004 268.146 37.8539C268.1 37.8074 268.063 37.7522 268.037 37.6915C268.012 37.6307 267.999 37.5656 267.999 37.4999C267.999 37.4342 268.012 37.3691 268.037 37.3083C268.063 37.2476 268.1 37.1924 268.146 37.1459L273.293 31.9999L268.146 26.8539Z" fill="white"/>
<defs>
<clipPath id="clip0_602_45">
<rect width="24" height="24" fill="white" transform="translate(20 20)"/>
</clipPath>
</defs>
</svg>
