<svg width="383" height="64" viewBox="0 0 383 64" fill="none" xmlns="http://www.w3.org/2000/svg">
<mask id="path-1-inside-1_598_31" fill="white">
<path d="M0 4C0 1.79086 1.79086 0 4 0H379C381.209 0 383 1.79086 383 4V60C383 62.2091 381.209 64 379 64H4C1.79086 64 0 62.2091 0 60V4Z"/>
</mask>
<path d="M0 4C0 1.79086 1.79086 0 4 0H379C381.209 0 383 1.79086 383 4V60C383 62.2091 381.209 64 379 64H4C1.79086 64 0 62.2091 0 60V4Z" fill="#59A10D"/>
<path d="M0 0H383H0ZM383 60C383 63.3137 380.314 66 377 66H6C2.68629 66 0 63.3137 0 60C0 61.1046 1.79086 62 4 62H379C381.209 62 383 61.1046 383 60ZM0 64V0V64ZM383 0V64V0Z" fill="#B5EA7C" mask="url(#path-1-inside-1_598_31)"/>
<path d="M23.75 32C23.7498 30.5518 24.1308 29.1289 24.8548 27.8746C25.5788 26.6203 26.6203 25.5786 27.8745 24.8544C29.1287 24.1301 30.5514 23.7488 31.9997 23.7488C33.448 23.7487 34.8708 24.1299 36.125 24.854C36.2972 24.9519 36.5011 24.9777 36.6922 24.9259C36.8833 24.874 37.0462 24.7486 37.1452 24.5771C37.2442 24.4056 37.2714 24.2018 37.2208 24.0104C37.1702 23.8189 37.0459 23.6552 36.875 23.555C35.0163 22.4819 32.8554 22.0521 30.7275 22.3322C28.5996 22.6123 26.6236 23.5867 25.1059 25.1043C23.5883 26.6219 22.6137 28.5978 22.3335 30.7257C22.0532 32.8536 22.4829 35.0145 23.556 36.8733C24.629 38.732 26.2853 40.1848 28.2681 41.0063C30.2509 41.8278 32.4494 41.9721 34.5226 41.4168C36.5958 40.8615 38.4278 39.6377 39.7345 37.9351C41.0413 36.2325 41.7497 34.1463 41.75 32C41.75 31.8011 41.671 31.6104 41.5303 31.4697C41.3897 31.3291 41.1989 31.25 41 31.25C40.8011 31.25 40.6103 31.3291 40.4697 31.4697C40.329 31.6104 40.25 31.8011 40.25 32C40.25 34.1881 39.3808 36.2865 37.8336 37.8337C36.2865 39.3809 34.188 40.25 32 40.25C29.812 40.25 27.7136 39.3809 26.1664 37.8337C24.6192 36.2865 23.75 34.1881 23.75 32Z" fill="white"/>
<path d="M43.031 25.031C43.1007 24.9612 43.156 24.8785 43.1938 24.7873C43.2315 24.6962 43.2509 24.5986 43.2509 24.5C43.2509 24.4014 43.2315 24.3037 43.1938 24.2126C43.156 24.1215 43.1007 24.0387 43.031 23.969C42.9612 23.8992 42.8785 23.8439 42.7873 23.8062C42.6962 23.7684 42.5986 23.749 42.5 23.749C42.4014 23.749 42.3037 23.7684 42.2126 23.8062C42.1215 23.8439 42.0387 23.8992 41.969 23.969L32 33.9395L28.031 29.969C27.9612 29.8992 27.8785 29.8439 27.7873 29.8062C27.6962 29.7684 27.5986 29.749 27.5 29.749C27.4014 29.749 27.3037 29.7684 27.2126 29.8062C27.1215 29.8439 27.0387 29.8992 26.969 29.969C26.8992 30.0387 26.8439 30.1215 26.8062 30.2126C26.7684 30.3037 26.749 30.4014 26.749 30.5C26.749 30.5986 26.7684 30.6962 26.8062 30.7873C26.8439 30.8785 26.8992 30.9612 26.969 31.031L31.469 35.531C31.5386 35.6008 31.6214 35.6562 31.7125 35.694C31.8036 35.7318 31.9013 35.7513 32 35.7513C32.0986 35.7513 32.1963 35.7318 32.2874 35.694C32.3785 35.6562 32.4613 35.6008 32.531 35.531L43.031 25.031Z" fill="white"/>
<path d="M58.768 38.192C57.8827 38.192 57.0613 38.048 56.304 37.76C55.5573 37.472 54.9067 37.0667 54.352 36.544C53.808 36.0213 53.3813 35.408 53.072 34.704C52.7733 34 52.624 33.232 52.624 32.4C52.624 31.568 52.7733 30.8 53.072 30.096C53.3813 29.392 53.8133 28.7787 54.368 28.256C54.9227 27.7333 55.5733 27.328 56.32 27.04C57.0667 26.752 57.8773 26.608 58.752 26.608C59.6373 26.608 60.448 26.752 61.184 27.04C61.9307 27.328 62.576 27.7333 63.12 28.256C63.6747 28.7787 64.1067 29.392 64.416 30.096C64.7253 30.7893 64.88 31.5573 64.88 32.4C64.88 33.232 64.7253 34.0053 64.416 34.72C64.1067 35.424 63.6747 36.0373 63.12 36.56C62.576 37.072 61.9307 37.472 61.184 37.76C60.448 38.048 59.6427 38.192 58.768 38.192ZM58.752 35.984C59.2533 35.984 59.712 35.8987 60.128 35.728C60.5547 35.5573 60.928 35.312 61.248 34.992C61.568 34.672 61.8133 34.2933 61.984 33.856C62.1653 33.4187 62.256 32.9333 62.256 32.4C62.256 31.8667 62.1653 31.3813 61.984 30.944C61.8133 30.5067 61.568 30.128 61.248 29.808C60.9387 29.488 60.5707 29.2427 60.144 29.072C59.7173 28.9013 59.2533 28.816 58.752 28.816C58.2507 28.816 57.7867 28.9013 57.36 29.072C56.944 29.2427 56.576 29.488 56.256 29.808C55.936 30.128 55.6853 30.5067 55.504 30.944C55.3333 31.3813 55.248 31.8667 55.248 32.4C55.248 32.9227 55.3333 33.408 55.504 33.856C55.6853 34.2933 55.9307 34.672 56.24 34.992C56.56 35.312 56.9333 35.5573 57.36 35.728C57.7867 35.8987 58.2507 35.984 58.752 35.984ZM69.648 35.44L69.504 32.448L74.864 26.8H77.744L72.912 32L71.472 33.536L69.648 35.44ZM67.328 38V26.8H69.904V38H67.328ZM74.992 38L71.008 33.12L72.704 31.28L78.016 38H74.992Z" fill="white"/>
<path d="M88.88 32.224H94.8V33.248H88.88V32.224ZM89.008 38H87.824V26.8H95.504V27.824H89.008V38ZM101.4 38.08C100.685 38.08 100.061 37.9467 99.5278 37.68C98.9944 37.4133 98.5784 37.0133 98.2798 36.48C97.9918 35.9467 97.8478 35.28 97.8478 34.48V29.6H98.9838V34.352C98.9838 35.248 99.2024 35.9253 99.6398 36.384C100.088 36.832 100.712 37.056 101.512 37.056C102.098 37.056 102.605 36.9387 103.032 36.704C103.469 36.4587 103.8 36.1067 104.024 35.648C104.258 35.1893 104.376 34.64 104.376 34V29.6H105.512V38H104.424V35.696L104.6 36.112C104.333 36.7307 103.917 37.216 103.352 37.568C102.797 37.9093 102.146 38.08 101.4 38.08ZM109.178 38V26.128H110.314V38H109.178ZM114.214 38V28.544C114.214 27.7973 114.432 27.1947 114.87 26.736C115.307 26.2773 115.936 26.048 116.758 26.048C117.078 26.048 117.387 26.0907 117.686 26.176C117.984 26.2613 118.235 26.3947 118.438 26.576L118.054 27.424C117.894 27.2853 117.707 27.184 117.494 27.12C117.28 27.0453 117.051 27.008 116.806 27.008C116.326 27.008 115.958 27.1413 115.702 27.408C115.446 27.6747 115.318 28.0693 115.318 28.592V29.872L115.35 30.4V38H114.214ZM112.71 30.544V29.6H117.91V30.544H112.71ZM119.446 38V29.6H120.582V38H119.446ZM120.022 27.744C119.787 27.744 119.59 27.664 119.43 27.504C119.27 27.344 119.19 27.152 119.19 26.928C119.19 26.704 119.27 26.5173 119.43 26.368C119.59 26.208 119.787 26.128 120.022 26.128C120.256 26.128 120.454 26.2027 120.614 26.352C120.774 26.5013 120.854 26.688 120.854 26.912C120.854 27.1467 120.774 27.344 120.614 27.504C120.464 27.664 120.267 27.744 120.022 27.744ZM124.272 38V26.128H125.408V38H124.272ZM129.068 38V26.128H130.204V38H129.068ZM137.433 38.08C136.559 38.08 135.791 37.8987 135.129 37.536C134.468 37.1627 133.951 36.656 133.577 36.016C133.204 35.3653 133.017 34.624 133.017 33.792C133.017 32.96 133.193 32.224 133.545 31.584C133.908 30.944 134.399 30.4427 135.017 30.08C135.647 29.7067 136.351 29.52 137.129 29.52C137.919 29.52 138.617 29.7013 139.225 30.064C139.844 30.416 140.329 30.9173 140.681 31.568C141.033 32.208 141.209 32.9493 141.209 33.792C141.209 33.8453 141.204 33.904 141.193 33.968C141.193 34.0213 141.193 34.08 141.193 34.144H133.881V33.296H140.585L140.137 33.632C140.137 33.024 140.004 32.4853 139.737 32.016C139.481 31.536 139.129 31.1627 138.681 30.896C138.233 30.6293 137.716 30.496 137.129 30.496C136.553 30.496 136.036 30.6293 135.577 30.896C135.119 31.1627 134.761 31.536 134.505 32.016C134.249 32.496 134.121 33.0453 134.121 33.664V33.84C134.121 34.48 134.26 35.0453 134.537 35.536C134.825 36.016 135.22 36.3947 135.721 36.672C136.233 36.9387 136.815 37.072 137.465 37.072C137.977 37.072 138.452 36.9813 138.889 36.8C139.337 36.6187 139.721 36.3413 140.041 35.968L140.681 36.704C140.308 37.152 139.839 37.4933 139.273 37.728C138.719 37.9627 138.105 38.08 137.433 38.08ZM147.366 38.08C146.566 38.08 145.846 37.8987 145.206 37.536C144.576 37.1733 144.08 36.672 143.718 36.032C143.355 35.3813 143.174 34.6347 143.174 33.792C143.174 32.9387 143.355 32.192 143.718 31.552C144.08 30.912 144.576 30.416 145.206 30.064C145.846 29.7013 146.566 29.52 147.366 29.52C148.102 29.52 148.758 29.6853 149.334 30.016C149.92 30.3467 150.384 30.832 150.726 31.472C151.078 32.1013 151.253 32.8747 151.253 33.792C151.253 34.6987 151.083 35.472 150.742 36.112C150.4 36.752 149.936 37.2427 149.35 37.584C148.774 37.9147 148.112 38.08 147.366 38.08ZM147.446 37.072C148.043 37.072 148.576 36.9387 149.046 36.672C149.526 36.3947 149.899 36.0107 150.166 35.52C150.443 35.0187 150.582 34.4427 150.582 33.792C150.582 33.1307 150.443 32.5547 150.166 32.064C149.899 31.5733 149.526 31.1947 149.046 30.928C148.576 30.6507 148.043 30.512 147.446 30.512C146.859 30.512 146.331 30.6507 145.862 30.928C145.392 31.1947 145.019 31.5733 144.742 32.064C144.464 32.5547 144.326 33.1307 144.326 33.792C144.326 34.4427 144.464 35.0187 144.742 35.52C145.019 36.0107 145.392 36.3947 145.862 36.672C146.331 36.9387 146.859 37.072 147.446 37.072ZM150.614 38V35.472L150.726 33.776L150.566 32.08V26.128H151.702V38H150.614ZM164.389 38.08C163.663 38.08 163.007 37.9147 162.421 37.584C161.834 37.2427 161.365 36.7573 161.013 36.128C160.671 35.488 160.501 34.7093 160.501 33.792C160.501 32.8747 160.671 32.1013 161.013 31.472C161.354 30.832 161.818 30.3467 162.405 30.016C162.991 29.6853 163.653 29.52 164.389 29.52C165.189 29.52 165.903 29.7013 166.533 30.064C167.173 30.416 167.674 30.9173 168.037 31.568C168.399 32.208 168.581 32.9493 168.581 33.792C168.581 34.6453 168.399 35.392 168.037 36.032C167.674 36.672 167.173 37.1733 166.533 37.536C165.903 37.8987 165.189 38.08 164.389 38.08ZM160.053 41.104V29.6H161.141V32.128L161.029 33.808L161.189 35.504V41.104H160.053ZM164.309 37.072C164.906 37.072 165.439 36.9387 165.909 36.672C166.378 36.3947 166.751 36.0107 167.029 35.52C167.306 35.0187 167.445 34.4427 167.445 33.792C167.445 33.1413 167.306 32.5707 167.029 32.08C166.751 31.5893 166.378 31.2053 165.909 30.928C165.439 30.6507 164.906 30.512 164.309 30.512C163.711 30.512 163.173 30.6507 162.693 30.928C162.223 31.2053 161.85 31.5893 161.573 32.08C161.306 32.5707 161.173 33.1413 161.173 33.792C161.173 34.4427 161.306 35.0187 161.573 35.52C161.85 36.0107 162.223 36.3947 162.693 36.672C163.173 36.9387 163.711 37.072 164.309 37.072ZM171.397 38V29.6H172.485V31.888L172.373 31.488C172.607 30.848 173.002 30.3627 173.557 30.032C174.111 29.6907 174.799 29.52 175.621 29.52V30.624C175.578 30.624 175.535 30.624 175.493 30.624C175.45 30.6133 175.407 30.608 175.365 30.608C174.479 30.608 173.786 30.88 173.285 31.424C172.783 31.9573 172.533 32.72 172.533 33.712V38H171.397ZM181.539 38.08C180.729 38.08 179.998 37.8987 179.347 37.536C178.707 37.1627 178.201 36.656 177.827 36.016C177.454 35.3653 177.267 34.624 177.267 33.792C177.267 32.9493 177.454 32.208 177.827 31.568C178.201 30.928 178.707 30.4267 179.347 30.064C179.987 29.7013 180.718 29.52 181.539 29.52C182.371 29.52 183.107 29.7013 183.747 30.064C184.398 30.4267 184.905 30.928 185.267 31.568C185.641 32.208 185.827 32.9493 185.827 33.792C185.827 34.624 185.641 35.3653 185.267 36.016C184.905 36.656 184.398 37.1627 183.747 37.536C183.097 37.8987 182.361 38.08 181.539 38.08ZM181.539 37.072C182.147 37.072 182.686 36.9387 183.155 36.672C183.625 36.3947 183.993 36.0107 184.259 35.52C184.537 35.0187 184.675 34.4427 184.675 33.792C184.675 33.1307 184.537 32.5547 184.259 32.064C183.993 31.5733 183.625 31.1947 183.155 30.928C182.686 30.6507 182.153 30.512 181.555 30.512C180.958 30.512 180.425 30.6507 179.955 30.928C179.486 31.1947 179.113 31.5733 178.835 32.064C178.558 32.5547 178.419 33.1307 178.419 33.792C178.419 34.4427 178.558 35.0187 178.835 35.52C179.113 36.0107 179.486 36.3947 179.955 36.672C180.425 36.9387 180.953 37.072 181.539 37.072ZM199.143 29.52C199.825 29.52 200.417 29.6533 200.919 29.92C201.431 30.176 201.825 30.5707 202.103 31.104C202.391 31.6373 202.535 32.3093 202.535 33.12V38H201.399V33.232C201.399 32.3467 201.185 31.68 200.759 31.232C200.343 30.7733 199.751 30.544 198.983 30.544C198.407 30.544 197.905 30.6667 197.479 30.912C197.063 31.1467 196.737 31.4933 196.503 31.952C196.279 32.4 196.167 32.944 196.167 33.584V38H195.031V33.232C195.031 32.3467 194.817 31.68 194.391 31.232C193.964 30.7733 193.367 30.544 192.599 30.544C192.033 30.544 191.537 30.6667 191.111 30.912C190.684 31.1467 190.353 31.4933 190.119 31.952C189.895 32.4 189.783 32.944 189.783 33.584V38H188.647V29.6H189.735V31.872L189.559 31.472C189.815 30.864 190.225 30.3893 190.791 30.048C191.367 29.696 192.044 29.52 192.823 29.52C193.644 29.52 194.343 29.728 194.919 30.144C195.495 30.5493 195.868 31.1627 196.039 31.984L195.591 31.808C195.836 31.1253 196.268 30.576 196.887 30.16C197.516 29.7333 198.268 29.52 199.143 29.52ZM206.115 38V29.6H207.251V38H206.115ZM206.691 27.744C206.457 27.744 206.259 27.664 206.099 27.504C205.939 27.344 205.859 27.152 205.859 26.928C205.859 26.704 205.939 26.5173 206.099 26.368C206.259 26.208 206.457 26.128 206.691 26.128C206.926 26.128 207.123 26.2027 207.283 26.352C207.443 26.5013 207.523 26.688 207.523 26.912C207.523 27.1467 207.443 27.344 207.283 27.504C207.134 27.664 206.937 27.744 206.691 27.744ZM213.168 38.08C212.475 38.08 211.819 37.984 211.2 37.792C210.581 37.5893 210.096 37.3387 209.744 37.04L210.256 36.144C210.597 36.4 211.035 36.624 211.568 36.816C212.101 36.9973 212.661 37.088 213.248 37.088C214.048 37.088 214.624 36.9653 214.976 36.72C215.328 36.464 215.504 36.128 215.504 35.712C215.504 35.4027 215.403 35.1627 215.2 34.992C215.008 34.8107 214.752 34.6773 214.432 34.592C214.112 34.496 213.755 34.416 213.36 34.352C212.965 34.288 212.571 34.2133 212.176 34.128C211.792 34.0427 211.44 33.92 211.12 33.76C210.8 33.5893 210.539 33.36 210.336 33.072C210.144 32.784 210.048 32.4 210.048 31.92C210.048 31.4613 210.176 31.0507 210.432 30.688C210.688 30.3253 211.061 30.0427 211.552 29.84C212.053 29.6267 212.661 29.52 213.376 29.52C213.92 29.52 214.464 29.5947 215.008 29.744C215.552 29.8827 216 30.0693 216.352 30.304L215.856 31.216C215.483 30.96 215.083 30.7787 214.656 30.672C214.229 30.5547 213.803 30.496 213.376 30.496C212.619 30.496 212.059 30.6293 211.696 30.896C211.344 31.152 211.168 31.4827 211.168 31.888C211.168 32.208 211.264 32.4587 211.456 32.64C211.659 32.8213 211.92 32.9653 212.24 33.072C212.571 33.168 212.928 33.248 213.312 33.312C213.707 33.376 214.096 33.456 214.48 33.552C214.875 33.6373 215.232 33.76 215.552 33.92C215.883 34.0693 216.144 34.288 216.336 34.576C216.539 34.8533 216.64 35.2213 216.64 35.68C216.64 36.1707 216.501 36.5973 216.224 36.96C215.957 37.312 215.563 37.5893 215.04 37.792C214.528 37.984 213.904 38.08 213.168 38.08ZM222.793 38.08C221.918 38.08 221.15 37.8987 220.489 37.536C219.827 37.1627 219.31 36.656 218.937 36.016C218.563 35.3653 218.377 34.624 218.377 33.792C218.377 32.96 218.553 32.224 218.905 31.584C219.267 30.944 219.758 30.4427 220.377 30.08C221.006 29.7067 221.71 29.52 222.489 29.52C223.278 29.52 223.977 29.7013 224.585 30.064C225.203 30.416 225.689 30.9173 226.041 31.568C226.393 32.208 226.569 32.9493 226.569 33.792C226.569 33.8453 226.563 33.904 226.553 33.968C226.553 34.0213 226.553 34.08 226.553 34.144H219.241V33.296H225.945L225.497 33.632C225.497 33.024 225.363 32.4853 225.097 32.016C224.841 31.536 224.489 31.1627 224.041 30.896C223.593 30.6293 223.075 30.496 222.489 30.496C221.913 30.496 221.395 30.6293 220.937 30.896C220.478 31.1627 220.121 31.536 219.865 32.016C219.609 32.496 219.481 33.0453 219.481 33.664V33.84C219.481 34.48 219.619 35.0453 219.897 35.536C220.185 36.016 220.579 36.3947 221.081 36.672C221.593 36.9387 222.174 37.072 222.825 37.072C223.337 37.072 223.811 36.9813 224.249 36.8C224.697 36.6187 225.081 36.3413 225.401 35.968L226.041 36.704C225.667 37.152 225.198 37.4933 224.633 37.728C224.078 37.9627 223.465 38.08 222.793 38.08ZM234.068 38V29.6H235.204V38H234.068ZM234.644 27.744C234.41 27.744 234.212 27.664 234.052 27.504C233.892 27.344 233.812 27.152 233.812 26.928C233.812 26.704 233.892 26.5173 234.052 26.368C234.212 26.208 234.41 26.128 234.644 26.128C234.879 26.128 235.076 26.2027 235.236 26.352C235.396 26.5013 235.476 26.688 235.476 26.912C235.476 27.1467 235.396 27.344 235.236 27.504C235.087 27.664 234.89 27.744 234.644 27.744ZM243.153 29.52C243.836 29.52 244.433 29.6533 244.945 29.92C245.468 30.176 245.873 30.5707 246.161 31.104C246.46 31.6373 246.609 32.3093 246.609 33.12V38H245.473V33.232C245.473 32.3467 245.249 31.68 244.801 31.232C244.364 30.7733 243.745 30.544 242.945 30.544C242.348 30.544 241.825 30.6667 241.377 30.912C240.94 31.1467 240.599 31.4933 240.353 31.952C240.119 32.4 240.001 32.944 240.001 33.584V38H238.865V29.6H239.953V31.904L239.777 31.472C240.044 30.864 240.471 30.3893 241.057 30.048C241.644 29.696 242.343 29.52 243.153 29.52ZM253.921 35.056V34.224L259.857 26.8H261.137L255.249 34.224L254.625 34.032H263.633V35.056H253.921ZM260.241 38V35.056L260.273 34.032V31.44H261.393V38H260.241ZM269.655 38.096C268.791 38.096 268.023 37.872 267.351 37.424C266.679 36.9653 266.151 36.3147 265.767 35.472C265.383 34.6187 265.191 33.5947 265.191 32.4C265.191 31.2053 265.383 30.1867 265.767 29.344C266.151 28.4907 266.679 27.84 267.351 27.392C268.023 26.9333 268.791 26.704 269.655 26.704C270.519 26.704 271.287 26.9333 271.959 27.392C272.631 27.84 273.159 28.4907 273.543 29.344C273.938 30.1867 274.135 31.2053 274.135 32.4C274.135 33.5947 273.938 34.6187 273.543 35.472C273.159 36.3147 272.631 36.9653 271.959 37.424C271.287 37.872 270.519 38.096 269.655 38.096ZM269.655 37.04C270.317 37.04 270.893 36.864 271.383 36.512C271.874 36.1493 272.258 35.6267 272.535 34.944C272.813 34.2507 272.951 33.4027 272.951 32.4C272.951 31.3973 272.813 30.5547 272.535 29.872C272.258 29.1787 271.874 28.656 271.383 28.304C270.893 27.9413 270.317 27.76 269.655 27.76C269.015 27.76 268.445 27.9413 267.943 28.304C267.442 28.656 267.053 29.1787 266.775 29.872C266.498 30.5547 266.359 31.3973 266.359 32.4C266.359 33.4027 266.498 34.2507 266.775 34.944C267.053 35.6267 267.442 36.1493 267.943 36.512C268.445 36.864 269.015 37.04 269.655 37.04ZM280.749 38.096C279.885 38.096 279.117 37.872 278.445 37.424C277.773 36.9653 277.245 36.3147 276.861 35.472C276.477 34.6187 276.285 33.5947 276.285 32.4C276.285 31.2053 276.477 30.1867 276.861 29.344C277.245 28.4907 277.773 27.84 278.445 27.392C279.117 26.9333 279.885 26.704 280.749 26.704C281.613 26.704 282.381 26.9333 283.053 27.392C283.725 27.84 284.253 28.4907 284.637 29.344C285.032 30.1867 285.229 31.2053 285.229 32.4C285.229 33.5947 285.032 34.6187 284.637 35.472C284.253 36.3147 283.725 36.9653 283.053 37.424C282.381 37.872 281.613 38.096 280.749 38.096ZM280.749 37.04C281.41 37.04 281.986 36.864 282.477 36.512C282.968 36.1493 283.352 35.6267 283.629 34.944C283.906 34.2507 284.045 33.4027 284.045 32.4C284.045 31.3973 283.906 30.5547 283.629 29.872C283.352 29.1787 282.968 28.656 282.477 28.304C281.986 27.9413 281.41 27.76 280.749 27.76C280.109 27.76 279.538 27.9413 279.037 28.304C278.536 28.656 278.146 29.1787 277.869 29.872C277.592 30.5547 277.453 31.3973 277.453 32.4C277.453 33.4027 277.592 34.2507 277.869 34.944C278.146 35.6267 278.536 36.1493 279.037 36.512C279.538 36.864 280.109 37.04 280.749 37.04ZM291.843 38.096C290.979 38.096 290.211 37.872 289.539 37.424C288.867 36.9653 288.339 36.3147 287.955 35.472C287.571 34.6187 287.379 33.5947 287.379 32.4C287.379 31.2053 287.571 30.1867 287.955 29.344C288.339 28.4907 288.867 27.84 289.539 27.392C290.211 26.9333 290.979 26.704 291.843 26.704C292.707 26.704 293.475 26.9333 294.147 27.392C294.819 27.84 295.347 28.4907 295.731 29.344C296.126 30.1867 296.323 31.2053 296.323 32.4C296.323 33.5947 296.126 34.6187 295.731 35.472C295.347 36.3147 294.819 36.9653 294.147 37.424C293.475 37.872 292.707 38.096 291.843 38.096ZM291.843 37.04C292.504 37.04 293.08 36.864 293.571 36.512C294.062 36.1493 294.446 35.6267 294.723 34.944C295 34.2507 295.139 33.4027 295.139 32.4C295.139 31.3973 295 30.5547 294.723 29.872C294.446 29.1787 294.062 28.656 293.571 28.304C293.08 27.9413 292.504 27.76 291.843 27.76C291.203 27.76 290.632 27.9413 290.131 28.304C289.63 28.656 289.24 29.1787 288.963 29.872C288.686 30.5547 288.547 31.3973 288.547 32.4C288.547 33.4027 288.686 34.2507 288.963 34.944C289.24 35.6267 289.63 36.1493 290.131 36.512C290.632 36.864 291.203 37.04 291.843 37.04ZM309.721 29.52C310.403 29.52 310.995 29.6533 311.497 29.92C312.009 30.176 312.403 30.5707 312.681 31.104C312.969 31.6373 313.113 32.3093 313.113 33.12V38H311.977V33.232C311.977 32.3467 311.763 31.68 311.337 31.232C310.921 30.7733 310.329 30.544 309.561 30.544C308.985 30.544 308.483 30.6667 308.057 30.912C307.641 31.1467 307.315 31.4933 307.081 31.952C306.857 32.4 306.745 32.944 306.745 33.584V38H305.609V33.232C305.609 32.3467 305.395 31.68 304.969 31.232C304.542 30.7733 303.945 30.544 303.177 30.544C302.611 30.544 302.115 30.6667 301.689 30.912C301.262 31.1467 300.931 31.4933 300.697 31.952C300.473 32.4 300.361 32.944 300.361 33.584V38H299.225V29.6H300.313V31.872L300.137 31.472C300.393 30.864 300.803 30.3893 301.369 30.048C301.945 29.696 302.622 29.52 303.401 29.52C304.222 29.52 304.921 29.728 305.497 30.144C306.073 30.5493 306.446 31.1627 306.617 31.984L306.169 31.808C306.414 31.1253 306.846 30.576 307.465 30.16C308.094 29.7333 308.846 29.52 309.721 29.52ZM318.949 38.08C318.256 38.08 317.6 37.984 316.981 37.792C316.363 37.5893 315.877 37.3387 315.525 37.04L316.037 36.144C316.379 36.4 316.816 36.624 317.349 36.816C317.883 36.9973 318.443 37.088 319.029 37.088C319.829 37.088 320.405 36.9653 320.757 36.72C321.109 36.464 321.285 36.128 321.285 35.712C321.285 35.4027 321.184 35.1627 320.981 34.992C320.789 34.8107 320.533 34.6773 320.213 34.592C319.893 34.496 319.536 34.416 319.141 34.352C318.747 34.288 318.352 34.2133 317.957 34.128C317.573 34.0427 317.221 33.92 316.901 33.76C316.581 33.5893 316.32 33.36 316.117 33.072C315.925 32.784 315.829 32.4 315.829 31.92C315.829 31.4613 315.957 31.0507 316.213 30.688C316.469 30.3253 316.843 30.0427 317.333 29.84C317.835 29.6267 318.443 29.52 319.157 29.52C319.701 29.52 320.245 29.5947 320.789 29.744C321.333 29.8827 321.781 30.0693 322.133 30.304L321.637 31.216C321.264 30.96 320.864 30.7787 320.437 30.672C320.011 30.5547 319.584 30.496 319.157 30.496C318.4 30.496 317.84 30.6293 317.477 30.896C317.125 31.152 316.949 31.4827 316.949 31.888C316.949 32.208 317.045 32.4587 317.237 32.64C317.44 32.8213 317.701 32.9653 318.021 33.072C318.352 33.168 318.709 33.248 319.093 33.312C319.488 33.376 319.877 33.456 320.261 33.552C320.656 33.6373 321.013 33.76 321.333 33.92C321.664 34.0693 321.925 34.288 322.117 34.576C322.32 34.8533 322.421 35.2213 322.421 35.68C322.421 36.1707 322.283 36.5973 322.005 36.96C321.739 37.312 321.344 37.5893 320.821 37.792C320.309 37.984 319.685 38.08 318.949 38.08Z" fill="white"/>
<path d="M349.146 26.8539C349.1 26.8074 349.063 26.7522 349.037 26.6915C349.012 26.6307 348.999 26.5656 348.999 26.4999C348.999 26.4342 349.012 26.3691 349.037 26.3083C349.063 26.2476 349.1 26.1924 349.146 26.1459C349.193 26.0994 349.248 26.0625 349.308 26.0374C349.369 26.0122 349.434 25.9993 349.5 25.9993C349.566 25.9993 349.631 26.0122 349.692 26.0374C349.752 26.0625 349.808 26.0994 349.854 26.1459L355 31.2929L360.146 26.1459C360.193 26.0994 360.248 26.0625 360.308 26.0374C360.369 26.0122 360.434 25.9993 360.5 25.9993C360.566 25.9993 360.631 26.0122 360.692 26.0374C360.752 26.0625 360.808 26.0994 360.854 26.1459C360.901 26.1924 360.937 26.2476 360.963 26.3083C360.988 26.3691 361.001 26.4342 361.001 26.4999C361.001 26.5656 360.988 26.6307 360.963 26.6915C360.937 26.7522 360.901 26.8074 360.854 26.8539L355.707 31.9999L360.854 37.1459C360.901 37.1924 360.937 37.2476 360.963 37.3083C360.988 37.3691 361.001 37.4342 361.001 37.4999C361.001 37.5656 360.988 37.6307 360.963 37.6915C360.937 37.7522 360.901 37.8074 360.854 37.8539C360.808 37.9004 360.752 37.9373 360.692 37.9624C360.631 37.9876 360.566 38.0005 360.5 38.0005C360.434 38.0005 360.369 37.9876 360.308 37.9624C360.248 37.9373 360.193 37.9004 360.146 37.8539L355 32.7069L349.854 37.8539C349.808 37.9004 349.752 37.9373 349.692 37.9624C349.631 37.9876 349.566 38.0005 349.5 38.0005C349.434 38.0005 349.369 37.9876 349.308 37.9624C349.248 37.9373 349.193 37.9004 349.146 37.8539C349.1 37.8074 349.063 37.7522 349.037 37.6915C349.012 37.6307 348.999 37.5656 348.999 37.4999C348.999 37.4342 349.012 37.3691 349.037 37.3083C349.063 37.2476 349.1 37.1924 349.146 37.1459L354.293 31.9999L349.146 26.8539Z" fill="white"/>
</svg>
